<?xml version="1.0" encoding="UTF-8"?>
<svg width="800px" height="800px" version="1.1" viewBox="0 0 780 500" xml:space="preserve" xmlns="http://www.w3.org/2000/svg">
<style type="text/css">
	.st0{fill:#393939;}
</style>
	<path class="st0" d="m740.8 0h-699c-23.1 0-41.8 19.1-41.8 42.6v416.3c0 23.5 18.7 42.6 41.7 42.6h699c23 0 41.7-19.1 41.7-42.6v-416.3c0.1-23.5-18.6-42.6-41.6-42.6zm-449.7 347.5h-60v-114c0-2.2-1.8-4-4-4-2 0-3.6 1.4-3.9 3.3l-35.1 114.7h-43.1l-35-114.8c-0.3-1.8-1.9-3.2-3.9-3.2-2.2 0-4 1.8-4 4v114h-60v-196h66.9c11 0 22.6 8.6 25.8 19.1l29.2 95.5c1.5 4.8 3.8 4.7 5.3 0l29.2-95.5c3.2-10.6 14.8-19.1 25.8-19.1h66.8v196zm223 0h-60v-116.5c-0.1-1.9-1.6-3.5-3.6-3.5-1.4 0-2.5 0.7-3.1 1.9v0.1c0 0.1-0.1 0.2-0.1 0.3l-49 105.1c-3.1 6.8-11.5 12.3-19.1 12.7h-60v-196h60v114c0 2.2 1.8 4 4 4 1.4 0 2.6-0.7 3.3-1.7 0.2-0.4 0.4-0.7 0.5-1.2l47.7-102.4c3.2-6.9 11.8-12.4 19.4-12.7h60v195.9zm158-63h-68v64h-60v-108h190.1c-9.2 25.5-33.5 43.8-62.1 44zm64.6-54h-104.3c-51 0-92.8-34.9-96.3-79h135.8c36.5 0.3 66 29.9 66 66.5 0 4.3-0.4 8.5-1.2 12.5z"/>
</svg>
